<?xml version="1.0" encoding="UTF-8" standalone="no"?>
<!DOCTYPE svg PUBLIC "-//W3C//DTD SVG 1.1//EN"
 "http://www.w3.org/Graphics/SVG/1.1/DTD/svg11.dtd">
<!-- Generated by graphviz version 2.44.1 (20200629.0846)
 -->
<!-- Title: g Pages: 1 -->
<svg width="1652pt" height="1870pt"
 viewBox="0.00 0.00 1652.00 1869.60" xmlns="http://www.w3.org/2000/svg" xmlns:xlink="http://www.w3.org/1999/xlink">
<g id="graph0" class="graph" transform="scale(1 1) rotate(0) translate(4 1865.6)">
<title>g</title>
<polygon fill="white" stroke="transparent" points="-4,4 -4,-1865.6 1648,-1865.6 1648,4 -4,4"/>
<g id="clust1" class="cluster">
<title>cluster_2076511073</title>
<polygon fill="#ececec" stroke="black" points="748,-1762.8 748,-1853.6 896,-1853.6 896,-1762.8 748,-1762.8"/>
<text text-anchor="middle" x="783.61" y="-1837" font-family="Times New Roman,serif" font-size="14.00">timerAPS</text>
</g>
<g id="clust2" class="cluster">
<title>cluster_65028</title>
<polygon fill="#ececec" stroke="black" points="8,-8 8,-1728 1636,-1728 1636,-8 8,-8"/>
<text text-anchor="middle" x="28.84" y="-1711.4" font-family="Times New Roman,serif" font-size="14.00">APS</text>
</g>
<g id="clust3" class="cluster">
<title>cluster_770666337</title>
<polygon fill="#d8d8d8" stroke="black" points="369,-271.6 369,-746 1234,-746 1234,-271.6 369,-271.6"/>
<text text-anchor="middle" x="402.66" y="-729.4" font-family="Times New Roman,serif" font-size="14.00">Schedule</text>
</g>
<!-- timerAPS2076511073 -->
<g id="node1" class="node">
<title>timerAPS2076511073</title>
<polygon fill="#ffffff" stroke="transparent" points="888,-1820.8 756,-1820.8 756,-1770.8 888,-1770.8 888,-1820.8"/>
<text text-anchor="start" x="761" y="-1803.2" font-family="Times New Roman,serif" font-size="14.00">(C)timerAPS</text>
<text text-anchor="start" x="760.52" y="-1779.2" font-family="Times New Roman,serif" font-size="14.00">+ main(args: String[])</text>
<polygon fill="black" stroke="black" points="756,-1795.8 756,-1795.8 888,-1795.8 888,-1795.8 756,-1795.8"/>
<polygon fill="none" stroke="black" points="756,-1770.8 756,-1820.8 888,-1820.8 888,-1770.8 756,-1770.8"/>
</g>
<!-- Scheduler1858361680 -->
<g id="node5" class="node">
<title>Scheduler1858361680</title>
<polygon fill="#ffffff" stroke="transparent" points="1627.5,-1695.2 16.5,-1695.2 16.5,-1117.2 1627.5,-1117.2 1627.5,-1695.2"/>
<text text-anchor="start" x="22" y="-1677.6" font-family="Times New Roman,serif" font-size="14.00">(C)Scheduler</text>
<text text-anchor="start" x="22" y="-1653.6" font-family="Times New Roman,serif" font-size="14.00">&#45; &#160;&#160;_executor: ExecutorService [0..1]</text>
<text text-anchor="start" x="22" y="-1629.6" font-family="Times New Roman,serif" font-size="14.00">&#45; &#160;&#160;_futures: ArrayList&lt;Future&lt;Double&gt;&gt; [0..*]</text>
<text text-anchor="start" x="22" y="-1605.6" font-family="Times New Roman,serif" font-size="14.00">&#45; &#160;&#160;_machines: ArrayList&lt;Machine&gt; [0..*]</text>
<text text-anchor="start" x="22" y="-1581.6" font-family="Times New Roman,serif" font-size="14.00">&#45; &#160;&#160;_max_capacity_per_machine: double [1]</text>
<text text-anchor="start" x="22" y="-1557.6" font-family="Times New Roman,serif" font-size="14.00">&#45; &#160;&#160;_max_units_allowed: int [1]</text>
<text text-anchor="start" x="22" y="-1533.6" font-family="Times New Roman,serif" font-size="14.00">&#45; &#160;&#160;_min_capacity_per_machine: double [1]</text>
<text text-anchor="start" x="22" y="-1509.6" font-family="Times New Roman,serif" font-size="14.00">&#45; &#160;&#160;_min_makespan: double [1]</text>
<text text-anchor="start" x="22" y="-1485.6" font-family="Times New Roman,serif" font-size="14.00">&#45; &#160;&#160;_num_machines: int [1]</text>
<text text-anchor="start" x="22" y="-1461.6" font-family="Times New Roman,serif" font-size="14.00">&#45; &#160;&#160;_num_orders: int [1]</text>
<text text-anchor="start" x="22" y="-1437.6" font-family="Times New Roman,serif" font-size="14.00">&#45; &#160;&#160;_num_production_types: int [1]</text>
<text text-anchor="start" x="22" y="-1413.6" font-family="Times New Roman,serif" font-size="14.00">&#45; &#160;&#160;_num_threads: int [1]</text>
<text text-anchor="start" x="22" y="-1389.6" font-family="Times New Roman,serif" font-size="14.00">&#45; &#160;&#160;_order_type_switch_times: ArrayList&lt;ArrayList&lt;Double&gt;&gt; [0..*]</text>
<text text-anchor="start" x="22" y="-1365.6" font-family="Times New Roman,serif" font-size="14.00">&#45; &#160;&#160;_orders: ArrayList&lt;Order&gt; [0..*]</text>
<text text-anchor="start" x="22" y="-1341.6" font-family="Times New Roman,serif" font-size="14.00">&#45; &#160;&#160;_schedules: List&lt;Schedule&gt; [0..*]</text>
<text text-anchor="start" x="22" y="-1317.6" font-family="Times New Roman,serif" font-size="14.00">+ calcAllSchedulesGrade(weights: Integer...)</text>
<text text-anchor="start" x="22" y="-1293.6" font-family="Times New Roman,serif" font-size="14.00">+ createChart(index: int): GanttChart&lt;Number, String&gt;</text>
<text text-anchor="start" x="22" y="-1269.6" font-family="Times New Roman,serif" font-size="14.00">+ createChart(schedule: Schedule): GanttChart&lt;Number, String&gt;</text>
<text text-anchor="start" x="22" y="-1245.6" font-family="Times New Roman,serif" font-size="14.00">&#45; depthFirstSearch(order_index: int, schedule: Schedule)</text>
<text text-anchor="start" x="22" y="-1221.6" font-family="Times New Roman,serif" font-size="14.00">+ generateAllPossible()</text>
<text text-anchor="start" x="22" y="-1197.6" font-family="Times New Roman,serif" font-size="14.00">+ getBestSchedule(num: int): List&lt;Schedule&gt;</text>
<text text-anchor="start" x="22" y="-1173.6" font-family="Times New Roman,serif" font-size="14.00"># getSwitchTime(i: int, j: int): double</text>
<text text-anchor="start" x="21.85" y="-1149.6" font-family="Times New Roman,serif" font-size="14.00">+ init(num_order_types: int, num_machines: int, num_orders: int, max_units_allowed: int, max_capacity_per_machine: double, min_capacity_per_machine: double, machines: ArrayList&lt;Machine&gt;, orders: ArrayList&lt;Order&gt;, order_type_switch_times: ArrayList&lt;ArrayList&lt;Double&gt;&gt;)</text>
<text text-anchor="start" x="22" y="-1125.6" font-family="Times New Roman,serif" font-size="14.00">+ initRandom(num_order_types: int, num_machines: int, num_orders: int, max_units_allowed: int, max_capacity_per_machine: double, min_capacity_per_machine: double, seed: Integer...)</text>
<polygon fill="black" stroke="black" points="17,-1670.2 17,-1670.2 1628,-1670.2 1628,-1670.2 17,-1670.2"/>
<polygon fill="black" stroke="black" points="17,-1334.2 17,-1334.2 1628,-1334.2 1628,-1334.2 17,-1334.2"/>
<polygon fill="none" stroke="black" points="16.5,-1117.2 16.5,-1695.2 1627.5,-1695.2 1627.5,-1117.2 16.5,-1117.2"/>
</g>
<!-- timerAPS2076511073&#45;&gt;Scheduler1858361680 -->
<g id="edge11" class="edge">
<title>timerAPS2076511073&#45;&gt;Scheduler1858361680</title>
<path fill="none" stroke="black" d="M822,-1770.55C822,-1754.68 822,-1732.04 822,-1705.71"/>
<polygon fill="black" stroke="black" points="825.5,-1705.44 822,-1695.44 818.5,-1705.44 825.5,-1705.44"/>
<text text-anchor="middle" x="901.75" y="-1740.2" font-family="Times New Roman,serif" font-size="14.00">main() &#45;&gt; getBestSchedule()</text>
</g>
<!-- Machine1858361680 -->
<g id="node2" class="node">
<title>Machine1858361680</title>
<polygon fill="#ffffff" stroke="transparent" points="1603.5,-425.6 1242.5,-425.6 1242.5,-279.6 1603.5,-279.6 1603.5,-425.6"/>
<text text-anchor="start" x="1248" y="-408" font-family="Times New Roman,serif" font-size="14.00">(C)Machine</text>
<text text-anchor="start" x="1248" y="-384" font-family="Times New Roman,serif" font-size="14.00">+ &#160;&#160;machine_ID: int [1]</text>
<text text-anchor="start" x="1248" y="-360" font-family="Times New Roman,serif" font-size="14.00">+ &#160;&#160;name: String [0..1]</text>
<text text-anchor="start" x="1247.87" y="-336" font-family="Times New Roman,serif" font-size="14.00">&#45; &#160;&#160;products_pace_per_hour: HashMap&lt;Integer, Integer&gt; [0..*]</text>
<text text-anchor="start" x="1248" y="-312" font-family="Times New Roman,serif" font-size="14.00">+ checkViableOrder(production_type_ID: int): boolean</text>
<text text-anchor="start" x="1248" y="-288" font-family="Times New Roman,serif" font-size="14.00">+ getProductionPace(production_type_id: int): int</text>
<polygon fill="black" stroke="black" points="1243,-400.6 1243,-400.6 1604,-400.6 1604,-400.6 1243,-400.6"/>
<polygon fill="black" stroke="black" points="1243,-328.6 1243,-328.6 1604,-328.6 1604,-328.6 1243,-328.6"/>
<polygon fill="none" stroke="black" points="1242.5,-279.6 1242.5,-425.6 1603.5,-425.6 1603.5,-279.6 1242.5,-279.6"/>
</g>
<!-- Order1858361680 -->
<g id="node3" class="node">
<title>Order1858361680</title>
<polygon fill="#ffffff" stroke="transparent" points="247.5,-210 64.5,-210 64.5,-16 247.5,-16 247.5,-210"/>
<text text-anchor="start" x="70" y="-192.4" font-family="Times New Roman,serif" font-size="14.00">(C)Order</text>
<text text-anchor="start" x="70" y="-168.4" font-family="Times New Roman,serif" font-size="14.00"># &#160;&#160;delivery_time: int [1]</text>
<text text-anchor="start" x="70" y="-144.4" font-family="Times New Roman,serif" font-size="14.00"># &#160;&#160;earliest_start_time: int [1]</text>
<text text-anchor="start" x="70" y="-120.4" font-family="Times New Roman,serif" font-size="14.00"># &#160;&#160;latest_due_time: int [1]</text>
<text text-anchor="start" x="70" y="-96.4" font-family="Times New Roman,serif" font-size="14.00"># &#160;&#160;name: String [0..1]</text>
<text text-anchor="start" x="70" y="-72.4" font-family="Times New Roman,serif" font-size="14.00"># &#160;&#160;order_ID: int [1]</text>
<text text-anchor="start" x="69.99" y="-48.4" font-family="Times New Roman,serif" font-size="14.00"># &#160;&#160;production_type_ID: int [1]</text>
<text text-anchor="start" x="70" y="-24.4" font-family="Times New Roman,serif" font-size="14.00"># &#160;&#160;quantity: int [1]</text>
<polygon fill="black" stroke="black" points="65,-185 65,-185 248,-185 248,-185 65,-185"/>
<polygon fill="none" stroke="black" points="64.5,-16 64.5,-210 247.5,-210 247.5,-16 64.5,-16"/>
</g>
<!-- Schedule1858361680 -->
<g id="node4" class="node">
<title>Schedule1858361680</title>
<polygon fill="#ffffff" stroke="transparent" points="1002,-1047.6 388,-1047.6 388,-805.6 1002,-805.6 1002,-1047.6"/>
<text text-anchor="start" x="393" y="-1030" font-family="Times New Roman,serif" font-size="14.00">(C)Schedule</text>
<text text-anchor="start" x="393" y="-1006" font-family="Times New Roman,serif" font-size="14.00">&#45; &#160;&#160;_grade: Grade [0..1]</text>
<text text-anchor="start" x="393" y="-982" font-family="Times New Roman,serif" font-size="14.00">&#45; &#160;&#160;_machines: ArrayList&lt;MachineWithOrders&gt; [0..*]</text>
<text text-anchor="start" x="392.84" y="-958" font-family="Times New Roman,serif" font-size="14.00">+ calcGradeByWeights(on_time_weight: int, makespan_weight: int, est_weight: int, ldt_weight: int): Grade</text>
<text text-anchor="start" x="393" y="-934" font-family="Times New Roman,serif" font-size="14.00"># calcStat(min_makespan: double, num_orders: int)</text>
<text text-anchor="start" x="393" y="-910" font-family="Times New Roman,serif" font-size="14.00">+ compareTo(o: Schedule): int</text>
<text text-anchor="start" x="393" y="-886" font-family="Times New Roman,serif" font-size="14.00">+ getMachine(i: int): MachineWithOrders</text>
<text text-anchor="start" x="393" y="-862" font-family="Times New Roman,serif" font-size="14.00">+ iterator(): Iterator&lt;MachineWithOrders&gt;</text>
<text text-anchor="start" x="393" y="-838" font-family="Times New Roman,serif" font-size="14.00">+ scheduleAllOrders(scheduler: Scheduler)</text>
<text text-anchor="start" x="393" y="-814" font-family="Times New Roman,serif" font-size="14.00">+ spliterator(): Spliterator&lt;MachineWithOrders&gt;</text>
<polygon fill="black" stroke="black" points="388,-1022.6 388,-1022.6 1002,-1022.6 1002,-1022.6 388,-1022.6"/>
<polygon fill="black" stroke="black" points="388,-974.6 388,-974.6 1002,-974.6 1002,-974.6 388,-974.6"/>
<polygon fill="none" stroke="black" points="388,-805.6 388,-1047.6 1002,-1047.6 1002,-805.6 388,-805.6"/>
</g>
<!-- Grade1316370379 -->
<g id="node6" class="node">
<title>Grade1316370379</title>
<polygon fill="#ffffff" stroke="transparent" points="946.5,-701.2 377.5,-701.2 377.5,-507.2 946.5,-507.2 946.5,-701.2"/>
<text text-anchor="start" x="383" y="-683.6" font-family="Times New Roman,serif" font-size="14.00">(C)Grade</text>
<text text-anchor="start" x="383" y="-659.6" font-family="Times New Roman,serif" font-size="14.00"># &#160;&#160;est_percentage: double [1]</text>
<text text-anchor="start" x="383" y="-635.6" font-family="Times New Roman,serif" font-size="14.00">&#45; &#160;&#160;grade: double [1]</text>
<text text-anchor="start" x="383" y="-611.6" font-family="Times New Roman,serif" font-size="14.00"># &#160;&#160;ldt_percentage: double [1]</text>
<text text-anchor="start" x="383" y="-587.6" font-family="Times New Roman,serif" font-size="14.00"># &#160;&#160;makespan_percentage: double [1]</text>
<text text-anchor="start" x="383" y="-563.6" font-family="Times New Roman,serif" font-size="14.00"># &#160;&#160;on_time_percentage: double [1]</text>
<text text-anchor="start" x="382.75" y="-539.6" font-family="Times New Roman,serif" font-size="14.00">&#45; calcGradeByWeights(on_time_weight: int, makespan_weight: int, est_weight: int, ldt_weight: int)</text>
<text text-anchor="start" x="383" y="-515.6" font-family="Times New Roman,serif" font-size="14.00">+ compareTo(o: Grade): int</text>
<polygon fill="black" stroke="black" points="378,-676.2 378,-676.2 947,-676.2 947,-676.2 378,-676.2"/>
<polygon fill="black" stroke="black" points="378,-556.2 378,-556.2 947,-556.2 947,-556.2 378,-556.2"/>
<polygon fill="none" stroke="black" points="377.5,-507.2 377.5,-701.2 946.5,-701.2 946.5,-507.2 377.5,-507.2"/>
</g>
<!-- Schedule1858361680&#45;&gt;Grade1316370379 -->
<g id="edge5" class="edge">
<title>Schedule1858361680&#45;&gt;Grade1316370379</title>
<path fill="none" stroke="black" d="M682.62,-805.38C679.44,-774.51 676.04,-741.53 672.94,-711.42"/>
<polygon fill="black" stroke="black" points="676.41,-710.92 671.9,-701.33 669.44,-711.64 676.41,-710.92"/>
<text text-anchor="middle" x="699.04" y="-775" font-family="Times New Roman,serif" font-size="14.00">_grade</text>
<text text-anchor="middle" x="699.04" y="-758.2" font-family="Times New Roman,serif" font-size="14.00">[0..1]</text>
</g>
<!-- MachineWithOrders1316370379 -->
<g id="node7" class="node">
<title>MachineWithOrders1316370379</title>
<polygon fill="#ffffff" stroke="transparent" points="1225.5,-713.2 964.5,-713.2 964.5,-495.2 1225.5,-495.2 1225.5,-713.2"/>
<text text-anchor="start" x="970" y="-695.6" font-family="Times New Roman,serif" font-size="14.00">(C)MachineWithOrders</text>
<text text-anchor="start" x="970" y="-671.6" font-family="Times New Roman,serif" font-size="14.00"># &#160;&#160;_approx_run_time: double [1]</text>
<text text-anchor="start" x="970" y="-647.6" font-family="Times New Roman,serif" font-size="14.00"># &#160;&#160;machine: Machine [0..1]</text>
<text text-anchor="start" x="969.63" y="-623.6" font-family="Times New Roman,serif" font-size="14.00">&#45; &#160;&#160;orders: ArrayList&lt;OrderWithTime&gt; [0..*]</text>
<text text-anchor="start" x="970" y="-599.6" font-family="Times New Roman,serif" font-size="14.00"># addOrder(o: Order): boolean</text>
<text text-anchor="start" x="970" y="-575.6" font-family="Times New Roman,serif" font-size="14.00">+ iterator(): Iterator&lt;OrderWithTime&gt;</text>
<text text-anchor="start" x="970" y="-551.6" font-family="Times New Roman,serif" font-size="14.00"># removeOrder(o: Order): boolean</text>
<text text-anchor="start" x="970" y="-527.6" font-family="Times New Roman,serif" font-size="14.00">+ scheduleAllOrders(scheduler: Scheduler)</text>
<text text-anchor="start" x="970" y="-503.6" font-family="Times New Roman,serif" font-size="14.00">+ scheduleAllOrders()</text>
<polygon fill="black" stroke="black" points="965,-688.2 965,-688.2 1226,-688.2 1226,-688.2 965,-688.2"/>
<polygon fill="black" stroke="black" points="965,-616.2 965,-616.2 1226,-616.2 1226,-616.2 965,-616.2"/>
<polygon fill="none" stroke="black" points="964.5,-495.2 964.5,-713.2 1225.5,-713.2 1225.5,-495.2 964.5,-495.2"/>
</g>
<!-- Schedule1858361680&#45;&gt;MachineWithOrders1316370379 -->
<g id="edge6" class="edge">
<title>Schedule1858361680&#45;&gt;MachineWithOrders1316370379</title>
<path fill="none" stroke="black" d="M869.45,-805.55C917.16,-772.72 956,-746 956,-746 956,-746 966.21,-735.66 981.09,-720.58"/>
<polygon fill="black" stroke="black" points="983.7,-722.92 988.24,-713.34 978.72,-718 983.7,-722.92"/>
<text text-anchor="middle" x="971.93" y="-775" font-family="Times New Roman,serif" font-size="14.00">_machines</text>
<text text-anchor="middle" x="971.93" y="-758.2" font-family="Times New Roman,serif" font-size="14.00">[0..*]</text>
</g>
<!-- OrderWithTime1316370379 -->
<g id="node8" class="node">
<title>OrderWithTime1316370379</title>
<polygon fill="#ffffff" stroke="transparent" points="507,-425.6 377,-425.6 377,-279.6 507,-279.6 507,-425.6"/>
<text text-anchor="start" x="382" y="-408" font-family="Times New Roman,serif" font-size="14.00">(C)OrderWithTime</text>
<text text-anchor="start" x="382" y="-384" font-family="Times New Roman,serif" font-size="14.00">&#45; &#160;&#160;_end_time: int [1]</text>
<text text-anchor="start" x="381.93" y="-360" font-family="Times New Roman,serif" font-size="14.00">&#45; &#160;&#160;_start_time: int [1]</text>
<text text-anchor="start" x="381.56" y="-336" font-family="Times New Roman,serif" font-size="14.00"># &#160;&#160;order: Order [0..1]</text>
<text text-anchor="start" x="382" y="-312" font-family="Times New Roman,serif" font-size="14.00">&#45; &#160;&#160;status: int [1]</text>
<text text-anchor="start" x="382" y="-288" font-family="Times New Roman,serif" font-size="14.00">+ statusCheck(): int</text>
<polygon fill="black" stroke="black" points="377,-400.6 377,-400.6 507,-400.6 507,-400.6 377,-400.6"/>
<polygon fill="black" stroke="black" points="377,-304.6 377,-304.6 507,-304.6 507,-304.6 377,-304.6"/>
<polygon fill="none" stroke="black" points="377,-279.6 377,-425.6 507,-425.6 507,-279.6 377,-279.6"/>
</g>
<!-- Schedule1858361680&#45;&gt;OrderWithTime1316370379 -->
<g id="edge7" class="edge">
<title>Schedule1858361680&#45;&gt;OrderWithTime1316370379</title>
<path fill="none" stroke="black" d="M387.72,-809.7C295.73,-775 218.84,-746 218.84,-746 218.84,-746 218.84,-495.2 218.84,-495.2 218.84,-495.2 333.73,-443.33 367.53,-426.66"/>
<polygon fill="black" stroke="black" points="369.55,-429.54 376.71,-421.73 366.24,-423.37 369.55,-429.54"/>
<text text-anchor="middle" x="293.08" y="-600" font-family="Times New Roman,serif" font-size="14.00">calcStat() &#45;&gt; statusCheck()</text>
</g>
<!-- Scheduler1858361680&#45;&gt;Machine1858361680 -->
<g id="edge8" class="edge">
<title>Scheduler1858361680&#45;&gt;Machine1858361680</title>
<path fill="none" stroke="black" d="M1197.32,-1117.19C1250.75,-1076.18 1288,-1047.6 1288,-1047.6 1288,-1047.6 1371.27,-619.55 1407.01,-435.8"/>
<polygon fill="black" stroke="black" points="1410.46,-436.39 1408.93,-425.91 1403.59,-435.05 1410.46,-436.39"/>
<text text-anchor="middle" x="1373.93" y="-775" font-family="Times New Roman,serif" font-size="14.00">_machines</text>
<text text-anchor="middle" x="1373.93" y="-758.2" font-family="Times New Roman,serif" font-size="14.00">[0..*]</text>
</g>
<!-- Scheduler1858361680&#45;&gt;Order1858361680 -->
<g id="edge9" class="edge">
<title>Scheduler1858361680&#45;&gt;Order1858361680</title>
<path fill="none" stroke="black" d="M405.09,-1117.05C259.16,-1016.18 131,-927.6 131,-927.6 131,-927.6 131,-927.6 131,-351.6 131,-351.6 138.15,-283.63 144.81,-220.4"/>
<polygon fill="black" stroke="black" points="148.3,-220.61 145.87,-210.3 141.34,-219.88 148.3,-220.61"/>
<text text-anchor="middle" x="151.99" y="-608.4" font-family="Times New Roman,serif" font-size="14.00">_orders</text>
<text text-anchor="middle" x="151.99" y="-591.6" font-family="Times New Roman,serif" font-size="14.00">[0..*]</text>
</g>
<!-- Scheduler1858361680&#45;&gt;Schedule1858361680 -->
<g id="edge10" class="edge">
<title>Scheduler1858361680&#45;&gt;Schedule1858361680</title>
<path fill="none" stroke="black" d="M745.38,-1117.05C739.91,-1096.5 734.58,-1076.46 729.56,-1057.57"/>
<polygon fill="black" stroke="black" points="732.92,-1056.57 726.96,-1047.8 726.15,-1058.37 732.92,-1056.57"/>
<text text-anchor="middle" x="769.71" y="-1086.6" font-family="Times New Roman,serif" font-size="14.00">_schedules</text>
<text text-anchor="middle" x="769.71" y="-1069.8" font-family="Times New Roman,serif" font-size="14.00">[0..*]</text>
</g>
<!-- MachineWithOrders1316370379&#45;&gt;Machine1858361680 -->
<g id="edge1" class="edge">
<title>MachineWithOrders1316370379&#45;&gt;Machine1858361680</title>
<path fill="none" stroke="black" d="M1225.51,-498.79C1228.39,-496.49 1230,-495.2 1230,-495.2 1230,-495.2 1271.94,-464.43 1316.72,-431.58"/>
<polygon fill="black" stroke="black" points="1318.81,-434.38 1324.8,-425.64 1314.67,-428.74 1318.81,-434.38"/>
<text text-anchor="middle" x="1320.71" y="-464.6" font-family="Times New Roman,serif" font-size="14.00">machine</text>
<text text-anchor="middle" x="1320.71" y="-447.8" font-family="Times New Roman,serif" font-size="14.00">[0..1]</text>
</g>
<!-- MachineWithOrders1316370379&#45;&gt;Scheduler1858361680 -->
<g id="edge3" class="edge">
<title>MachineWithOrders1316370379&#45;&gt;Scheduler1858361680</title>
<path fill="none" stroke="black" d="M1074.45,-713.42C1049.58,-844.4 1011,-1047.6 1011,-1047.6 1011,-1047.6 998.1,-1072.01 979.03,-1108.08"/>
<polygon fill="black" stroke="black" points="975.91,-1106.5 974.33,-1116.97 982.1,-1109.77 975.91,-1106.5"/>
<text text-anchor="middle" x="1169.35" y="-922.4" font-family="Times New Roman,serif" font-size="14.00">scheduleAllOrders() &#45;&gt; getSwitchTime()</text>
</g>
<!-- MachineWithOrders1316370379&#45;&gt;OrderWithTime1316370379 -->
<g id="edge2" class="edge">
<title>MachineWithOrders1316370379&#45;&gt;OrderWithTime1316370379</title>
<path fill="none" stroke="black" d="M964.28,-501.63C959.06,-497.58 956,-495.2 956,-495.2 956,-495.2 739,-477.2 739,-477.2 739,-477.2 717,-443.6 717,-443.6 717,-443.6 558.58,-429.76 517.09,-423.74"/>
<polygon fill="black" stroke="black" points="517.79,-420.31 507.29,-421.73 516.38,-427.17 517.79,-420.31"/>
<text text-anchor="middle" x="756.49" y="-464.6" font-family="Times New Roman,serif" font-size="14.00">orders</text>
<text text-anchor="middle" x="756.49" y="-447.8" font-family="Times New Roman,serif" font-size="14.00">[0..*]</text>
</g>
<!-- OrderWithTime1316370379&#45;&gt;Order1858361680 -->
<g id="edge4" class="edge">
<title>OrderWithTime1316370379&#45;&gt;Order1858361680</title>
<path fill="none" stroke="black" d="M379.87,-279.56C375.63,-274.65 373,-271.6 373,-271.6 373,-271.6 312.99,-228.01 256.08,-186.68"/>
<polygon fill="black" stroke="black" points="257.86,-183.65 247.71,-180.61 253.75,-189.32 257.86,-183.65"/>
<text text-anchor="middle" x="373.16" y="-249" font-family="Times New Roman,serif" font-size="14.00">order</text>
<text text-anchor="middle" x="373.16" y="-232.2" font-family="Times New Roman,serif" font-size="14.00">[0..1]</text>
</g>
</g>
</svg>
